Coordinates
version=1
nRows=13
nColumns=40
inDegrees=yes

Units are S.I. units (second, meters, Newtons, ...)
Angles are in degrees.

endheader
time	pelvis_tilt	pelvis_list	pelvis_rotation	pelvis_tx	pelvis_ty	pelvis_tz	hip_flexion_r	hip_adduction_r	hip_rotation_r	knee_angle_r	knee_angle_r_beta	ankle_angle_r	subtalar_angle_r	mtp_angle_r	hip_flexion_l	hip_adduction_l	hip_rotation_l	knee_angle_l	knee_angle_l_beta	ankle_angle_l	subtalar_angle_l	mtp_angle_l	lumbar_extension	lumbar_bending	lumbar_rotation	arm_flex_r	arm_add_r	arm_rot_r	elbow_flex_r	pro_sup_r	wrist_flex_r	wrist_dev_r	arm_flex_l	arm_add_l	arm_rot_l	elbow_flex_l	pro_sup_l	wrist_flex_l	wrist_dev_l
     23.69000000	     -2.15403757	     -3.18167840	     -3.61285404	      1.07033431	      0.93446002	      0.41463610	     24.99557409	     -5.92900955	    -12.59913224	     15.72527128	     15.72527128	     -0.01582704	      6.83958748	      6.53095013	      3.50077260	     -4.14863961	    -16.72479246	     14.01051825	     14.01051825	     15.54531113	      1.69343052	     -9.50619613	    -10.73789674	     -1.85360278	     -3.21560900	     -8.55768444	    -14.39015628	     -4.95407682	     34.98410171	     46.56002598	      0.00000000	      0.00000000	     18.15088766	    -15.30125302	     -3.88496079	     39.28234539	     46.04112992	      0.00000000	      0.00000000
     23.70400000	     -2.12322475	     -2.79984446	     -3.63920689	      1.07155066	      0.93362116	      0.41584445	     24.12182164	     -6.13474006	    -11.92000862	     16.60666014	     16.60666014	      0.32042478	      6.21611159	      6.18769098	      2.64626841	     -3.67984231	    -16.90806128	     13.32252961	     13.32252961	     15.70778668	      2.14716428	     -9.60033272	    -10.47933326	     -2.05852047	     -3.38019632	     -8.12836107	    -14.37261967	     -4.94635544	     36.10367200	     46.50214530	      0.00000000	      0.00000000	     17.75496805	    -15.17931231	     -4.01227901	     38.99972000	     46.05329056	      0.00000000	      0.00000000
     23.71800000	     -2.25278329	     -2.60306300	     -3.59091311	      1.07270476	      0.93250897	      0.41712777	     23.18881125	     -6.14157216	    -11.63888985	     16.97769484	     16.97769484	      0.78940892	      6.16334823	      5.99459754	      2.29607637	     -3.52080828	    -16.82050919	     13.27748539	     13.27748539	     16.03419497	      2.20510962	     -9.72456975	    -10.06556865	     -2.04391365	     -3.23077832	     -7.67184157	    -14.34427714	     -4.94907766	     36.41297208	     46.49173473	      0.00000000	      0.00000000	     17.49290552	    -14.87233926	     -3.97253041	     38.90049644	     46.04500326	      0.00000000	      0.00000000
     23.73200000	     -2.06003276	     -2.26109497	     -3.62677669	      1.07415376	      0.93185858	      0.41857107	     22.20174963	     -6.28610247	    -10.97385367	     17.66531071	     17.66531071	      1.55129015	      5.78248317	      5.56062325	      1.26408525	     -3.10321627	    -17.01591217	     12.62772949	     12.62772949	     16.20466983	      2.64955660	     -9.65221602	    -10.08134425	     -2.16344995	     -3.51330359	     -7.01444385	    -14.39728413	     -5.01684685	     37.70457866	     46.44014386	      0.00000000	      0.00000000	     16.99023872	    -14.88560866	     -4.12073927	     38.49865078	     46.05508023	      0.00000000	      0.00000000
     23.74600000	     -2.10329566	     -2.08604379	     -3.64235386	      1.07550053	      0.93107818	      0.42016151	     21.24157591	     -6.19733845	    -10.53072645	     17.66602247	     17.66602247	      2.10542975	      5.65452013	      4.77013917	      0.64038406	     -2.92033228	    -16.96992388	     12.26325167	     12.26325167	     16.41716003	      2.73144771	     -9.40212620	     -9.84430608	     -2.06804095	     -3.42917509	     -7.07072325	    -14.63228400	     -4.85148842	     40.35744511	     46.29898156	      0.00000000	      0.00000000	     16.51576784	    -14.53159606	     -4.76606278	     38.24577616	     46.12521204	      0.00000000	      0.00000000
     23.76000000	     -2.25067240	     -2.00694124	     -3.65792354	      1.07660372	      0.93020426	      0.42191623	     20.58791149	     -6.05275606	    -10.23449027	     17.75721266	     17.75721266	      2.91772770	      5.71694299	      4.43276572	      0.35882407	     -2.93548257	    -16.90039173	     12.32247693	     12.32247693	     16.66494821	      2.65795458	     -9.44524481	     -9.52686528	     -1.88486101	     -3.11033887	     -6.44630257	    -14.67638970	     -4.85350670	     40.72628603	     46.28738322	      0.00000000	      0.00000000	     16.16084574	    -14.19054445	     -4.74613290	     38.10447406	     46.11725091	      0.00000000	      0.00000000
     23.77400000	     -2.25945746	     -2.02652618	     -3.68721927	      1.07769181	      0.92971134	      0.42387761	     19.82314219	     -5.76881468	     -9.85382427	     17.62679258	     17.62679258	      3.16359331	      5.36957965	      2.50950047	     -0.06173459	     -3.05181146	    -16.75621664	     12.45503648	     12.45503648	     17.23146983	      2.52949405	     -8.32046164	     -9.46618860	     -1.55986460	     -3.05503486	     -6.38827876	    -15.09899432	     -4.32913558	     43.84561076	     46.10304461	      0.00000000	      0.00000000	     15.64220955	    -13.82686995	     -6.00397528	     37.78064728	     46.25075400	      0.00000000	      0.00000000
     23.78800000	     -2.39665277	     -2.11709579	     -3.77487108	      1.07857673	      0.92926833	      0.42608178	     19.42303500	     -5.46553872	     -9.63848949	     17.71518789	     17.71518789	      3.92748768	      5.39971297	      2.15811645	     -0.32151106	     -3.28495289	    -16.73812688	     12.57504694	     12.57504694	     17.34377610	      2.36692102	     -8.26690911	     -9.24951587	     -1.19854180	     -2.66800413	     -5.54121460	    -15.20437347	     -4.36107101	     44.24420305	     46.09338559	      0.00000000	      0.00000000	     15.17361124	    -13.51541811	     -5.99147929	     37.57881072	     46.24119863	      0.00000000	      0.00000000
     23.80200000	     -2.48821128	     -2.32018605	     -3.87073826	      1.07934404	      0.92906624	      0.42852113	     19.09914814	     -5.05932770	     -9.46066556	     17.87337956	     17.87337956	      4.61693447	      5.33097471	      1.78041383	     -0.57184757	     -3.66624475	    -16.68472674	     12.80573339	     12.80573339	     17.43893292	      2.08548031	     -8.11795092	     -9.14120193	     -0.73301736	     -2.35218138	     -4.57383661	    -15.34760970	     -4.41704991	     44.82327402	     46.07876863	      0.00000000	      0.00000000	     14.61836085	    -13.28958066	     -6.01891647	     37.33591284	     46.23509311	      0.00000000	      0.00000000
     23.81600000	     -2.66551385	     -2.64936408	     -3.85532610	      1.07979403	      0.92882294	      0.43123483	     18.91284627	     -4.46623632	     -9.13728972	     17.98375205	     17.98375205	      4.99526661	      4.58429278	      1.06244360	     -0.37249809	     -4.30428094	    -16.31455066	     13.71342264	     13.71342264	     17.91808519	      1.40892469	     -7.19900508	     -9.00495165	     -0.12095552	     -2.83636019	     -3.50467394	    -15.42735390	     -4.34093255	     46.80725659	     45.99797188	      0.00000000	      0.00000000	     13.59179340	    -13.46678617	     -6.56705359	     37.04808392	     46.28256159	      0.00000000	      0.00000000
     23.83000000	     -2.71342288	     -2.95268017	     -3.95105434	      1.08038222	      0.92885597	      0.43422014	     18.70240425	     -3.93293026	     -8.90503828	     18.23082741	     18.23082741	      5.19779906	      4.07327653	     -0.26414043	     -0.39136103	     -4.95252459	    -16.44683704	     14.60625689	     14.60625689	     19.05735197	      1.63257420	     -4.63880979	     -9.06717142	      0.41975560	     -2.53671808	     -3.27134531	    -16.07729967	     -3.23717894	     49.79599317	     45.81002489	      0.00000000	      0.00000000	     12.67672934	    -13.04144414	     -8.33538243	     37.72213299	     46.46694253	      0.00000000	      0.00000000
     23.84400000	     -2.73358374	     -3.21532465	     -4.10393218	      1.08102215	      0.92904199	      0.43746378	     18.51659762	     -3.47327929	     -8.82705913	     18.58208839	     18.58208839	      5.72013068	      4.04689418	     -0.52454339	     -0.65114767	     -5.46649933	    -16.45468680	     14.96930645	     14.96930645	     18.99472056	      1.28570513	     -4.51160882	     -9.04979291	      0.83684887	     -2.00570954	     -2.24343135	    -16.18407485	     -3.29188944	     50.28603418	     45.79958169	      0.00000000	      0.00000000	     12.08155023	    -12.83921136	     -8.35027711	     37.48010805	     46.45839111	      0.00000000	      0.00000000
     23.85800000	     -2.80748664	     -3.60940127	     -4.07282438	      1.08142664	      0.92897283	      0.44091322	     18.43662183	     -2.86918751	     -8.78693408	     19.07621551	     19.07621551	      6.24868383	      3.52619692	     -0.66691693	     -0.34586300	     -6.29899739	    -16.11635399	     16.27435925	     16.27435925	     19.25493539	      0.53620146	     -4.09219973	     -9.04477037	      1.38562029	     -2.40671921	     -1.01934303	    -16.21166310	     -3.28529742	     51.91060392	     45.74315470	      0.00000000	      0.00000000	     11.03042898	    -13.07908704	     -8.64160343	     37.19448995	     46.47457550	      0.00000000	      0.00000000
